# xmcd CD database file
#
# Track frame offsets:
#	180
#	14105
#	31232
#	42104
#	60828
#	73423
#	103919
#	113017
#	139281
#	151348
#	178105
#	191520
#	203811
#	217644
#	230469
#
# Disc length: 3231 seconds
#
# Revision: 1
# Processed by: cddbd v1.5.2PL0 Copyright (c) Steve Scherf et al.
# Submitted via: CDex 1.50Beta7
#
DISCID=d00c9d0f
DTITLE=The Blues Collection Vol.2 - The Blues Collection Vol.2
DYEAR=1900
DGENRE=Blues
TTITLE0=Jeff Beck - Jeff`s Blues
TTITLE1=John Lee Hooker - Blues Before Sunshine
TTITLE2=Muddy Waters - Diamonds At Your Feet
TTITLE3=Eric Clapton - Storm Monday
TTITLE4=Howlin` Wolf - Ain`t Superstitious
TTITLE5=Big Joe Turner - How Long Blues
TTITLE6=Jeff Beck - I Ain`t Got You 
TTITLE7=B.B.King - Guess Who
TTITLE8=Jimmy Reed - Honest I Do
TTITLE9=Otis Rush and Little Walter - It`s Hard For Me To Believe Baby
TTITLE10=Memphis Slim - Everyday I Have The Blues
TTITLE11=Elmore James - Mean Mistreatin` Mama
TTITLE12=Howlin` Wolf - Highway 49
TTITLE13=Muddy Waters - Forty Days And Forty Nights
TTITLE14=John Lee Hooker - I`m In The Mood
EXTD=
EXTT0=
EXTT1=
EXTT2=
EXTT3=
EXTT4=
EXTT5=
EXTT6=
EXTT7=
EXTT8=
EXTT9=
EXTT10=
EXTT11=
EXTT12=
EXTT13=
EXTT14=
PLAYORDER=
